<svg xmlns="http://www.w3.org/2000/svg" width="20.551" height="18.708" viewBox="0 0 20.551 18.708">
  <g id="cart2" transform="translate(-2 -2)">
    <path id="Caminho_1571" data-name="Caminho 1571" d="M16.876,38a1.876,1.876,0,1,0,1.876,1.876A1.882,1.882,0,0,0,16.876,38Zm0,2.814a.938.938,0,1,1,.938-.938A.941.941,0,0,1,16.876,40.814Z" transform="translate(-6.693 -21.044)"/>
    <path id="Caminho_1572" data-name="Caminho 1572" d="M34.876,38a1.876,1.876,0,1,0,1.876,1.876A1.882,1.882,0,0,0,34.876,38Zm0,2.814a.938.938,0,1,1,.938-.938A.941.941,0,0,1,34.876,40.814Z" transform="translate(-15.901 -21.044)"/>
    <path id="Caminho_1573" data-name="Caminho 1573" d="M22.2,4.927a1.546,1.546,0,0,0-1.109-.454H7.207L6.918,3.031A1.316,1.316,0,0,0,5.52,2H2v.825H5.52A.491.491,0,0,1,6,3.2l2.17,11.792a1.408,1.408,0,0,0,1.446,1.031h10.7v-.825H9.618a.491.491,0,0,1-.482-.371l-.241-1.278H19.936a1.4,1.4,0,0,0,1.446-1.072l1.157-6.6A1.077,1.077,0,0,0,22.2,4.927ZM14.054,9.421v3.3H12.077l-.579-3.3Zm-2.7-.825-.579-3.3h3.279V8.6Zm3.664.825h2.555l-.579,3.3H15.018Zm0-.825V5.3H18.3l-.579,3.3ZM9.762,5.3l.579,3.3H7.979L7.352,5.3ZM8.123,9.421h2.362l.579,3.3H8.75Zm12.295,2.927a.491.491,0,0,1-.482.371H18.007l.579-3.3h2.362Zm1.157-6.556-.482,2.8H18.73l.579-3.3h1.784a.467.467,0,0,1,.386.165A.323.323,0,0,1,21.575,5.793Z"/>
  </g>
</svg>
