<svg xmlns="http://www.w3.org/2000/svg" width="17.861" height="16.888" viewBox="0 0 17.861 16.888">
  <g id="Expanded" transform="translate(0 -2.616)">
    <g id="Grupo_1338" data-name="Grupo 1338" transform="translate(0 2.616)">
      <g id="Grupo_1335" data-name="Grupo 1335" transform="translate(2.233 8.701)">
        <path id="Caminho_1574" data-name="Caminho 1574" d="M19.4,34.186H14.186V29.349H11.209v4.837H6V26.372a.372.372,0,0,1,.744,0v7.07h3.721V28.6h4.465v4.837h3.721v-6.7a.372.372,0,0,1,.744,0Z" transform="translate(-6 -26)"/>
      </g>
      <g id="Grupo_1336" data-name="Grupo 1336">
        <path id="Caminho_1575" data-name="Caminho 1575" d="M17.489,11.689a.371.371,0,0,1-.257-.1l-8.3-7.94-8.3,7.94a.372.372,0,1,1-.515-.538L8.93,2.616l8.816,8.432a.372.372,0,0,1-.257.641Z" transform="translate(0 -2.616)"/>
      </g>
      <g id="Grupo_1337" data-name="Grupo 1337" transform="translate(11.535 1.259)">
        <path id="Caminho_1576" data-name="Caminho 1576" d="M33.977,9.349a.372.372,0,0,1-.372-.372V6.744H31.372a.372.372,0,0,1,0-.744h2.977V8.977A.372.372,0,0,1,33.977,9.349Z" transform="translate(-31 -6)"/>
      </g>
    </g>
  </g>
</svg>
