<svg xmlns="http://www.w3.org/2000/svg" width="16.457" height="19.709" viewBox="0 0 16.457 19.709">
  <g id="lista5" transform="translate(-4.31 -2)">
    <path id="Caminho_1567" data-name="Caminho 1567" d="M18.8,5.245H16.98V3.739A1.739,1.739,0,0,0,15.241,2H6.049A1.739,1.739,0,0,0,4.31,3.739V16.725a1.739,1.739,0,0,0,1.739,1.739H8.1v1.274a1.971,1.971,0,0,0,1.971,1.971H18.8a1.971,1.971,0,0,0,1.971-1.971V7.216A1.971,1.971,0,0,0,18.8,5.245ZM6.049,17.148a.429.429,0,0,1-.429-.422V3.739a.429.429,0,0,1,.429-.422h9.193a.429.429,0,0,1,.429.422V5.245H10.04A1.971,1.971,0,0,0,8.069,7.216v9.932Zm13.374,2.59a.662.662,0,0,1-.662.655H10.068a.662.662,0,0,1-.662-.655V7.216a.662.662,0,0,1,.662-.655H18.8a.662.662,0,0,1,.662.655Z" transform="translate(0 0)" fill="#030303"/>
    <path id="Caminho_1568" data-name="Caminho 1568" d="M20.34,13.529H13.583a.662.662,0,1,0,0,1.316H20.34a.662.662,0,1,0,0-1.316Z" transform="translate(-2.53 -3.413)" fill="#030303"/>
    <path id="Caminho_1569" data-name="Caminho 1569" d="M20.34,17.369H13.583a.662.662,0,1,0,0,1.316H20.34a.662.662,0,1,0,0-1.316Z" transform="translate(-2.53 -4.55)" fill="#030303"/>
    <path id="Caminho_1570" data-name="Caminho 1570" d="M20.372,21.22H13.615a.655.655,0,1,0,0,1.309h6.757a.655.655,0,0,0,0-1.309Z" transform="translate(-2.561 -5.691)" fill="#030303"/>
  </g>
</svg>
