<svg xmlns="http://www.w3.org/2000/svg" width="25.057" height="25.057" viewBox="0 0 25.057 25.057">
  <g id="scan" transform="translate(-6 -6)" opacity="0.199">
    <path id="Caminho_1577" data-name="Caminho 1577" d="M12.633,36.159v1.474H8.211A2.211,2.211,0,0,1,6,35.422V31H7.474v4.422a.737.737,0,0,0,.737.737Z" transform="translate(0 -6.576)"/>
    <path id="Caminho_1578" data-name="Caminho 1578" d="M37.633,31v4.422a2.211,2.211,0,0,1-2.211,2.211H31V36.159h4.422a.737.737,0,0,0,.737-.737V31Z" transform="translate(-6.576 -6.576)"/>
    <path id="Caminho_1579" data-name="Caminho 1579" d="M37.633,8.211v4.422H36.159V8.211a.737.737,0,0,0-.737-.737H31V6h4.422A2.211,2.211,0,0,1,37.633,8.211Z" transform="translate(-6.576)"/>
    <path id="Caminho_1580" data-name="Caminho 1580" d="M12.633,6V7.474H8.211a.737.737,0,0,0-.737.737v4.422H6V8.211A2.211,2.211,0,0,1,8.211,6Z" transform="translate(0 0)"/>
    <rect id="Retângulo_1633" data-name="Retângulo 1633" width="2" height="14" transform="translate(9 10)"/>
    <rect id="Retângulo_1634" data-name="Retângulo 1634" width="2" height="2" transform="translate(9 25)"/>
    <rect id="Retângulo_1635" data-name="Retângulo 1635" width="1" height="17" transform="translate(12 10)"/>
    <rect id="Retângulo_1636" data-name="Retângulo 1636" width="3" height="17" transform="translate(13 10)"/>
    <rect id="Retângulo_1637" data-name="Retângulo 1637" width="1" height="17" transform="translate(16 10)"/>
    <rect id="Retângulo_1638" data-name="Retângulo 1638" width="2" height="17" transform="translate(18 10)"/>
    <rect id="Retângulo_1639" data-name="Retângulo 1639" height="17" transform="translate(21 10)"/>
    <rect id="Retângulo_1640" data-name="Retângulo 1640" width="2" height="17" transform="translate(22 10)"/>
    <rect id="Retângulo_1641" data-name="Retângulo 1641" width="1" height="17" transform="translate(25 10)"/>
    <rect id="Retângulo_1642" data-name="Retângulo 1642" width="1" height="17" transform="translate(27 10)"/>
  </g>
</svg>
