<svg xmlns="http://www.w3.org/2000/svg" width="18.5" height="18.5" viewBox="0 0 18.5 18.5">
  <g id="share" transform="translate(-7.9 -8.2)" opacity="0.413">
    <g id="Icon-Share-Google" transform="translate(7.9 8.2)">
      <path id="Fill-61" d="M-269.049-349.6a3.033,3.033,0,0,1-3.051-3.051,3.033,3.033,0,0,1,3.051-3.051A3.033,3.033,0,0,1-266-352.649a3.058,3.058,0,0,1-3.051,3.051Zm0-4.982a1.9,1.9,0,0,0-1.893,1.893,1.9,1.9,0,0,0,1.893,1.892,1.9,1.9,0,0,0,1.893-1.892,1.921,1.921,0,0,0-1.893-1.893Z" transform="translate(272.1 361.918)" fill="#231f20"/>
      <path id="Fill-62" d="M-236.949-365.7A3.033,3.033,0,0,1-240-368.749a3.033,3.033,0,0,1,3.051-3.051,3.033,3.033,0,0,1,3.051,3.051,3.058,3.058,0,0,1-3.051,3.051Zm0-4.944a1.9,1.9,0,0,0-1.893,1.892,1.9,1.9,0,0,0,1.893,1.893,1.9,1.9,0,0,0,1.893-1.893,1.9,1.9,0,0,0-1.893-1.892Z" transform="translate(252.398 371.8)" fill="#231f20"/>
      <path id="Fill-63" d="M-236.949-333.6A3.033,3.033,0,0,1-240-336.649a3.033,3.033,0,0,1,3.051-3.051,3.033,3.033,0,0,1,3.051,3.051,3.058,3.058,0,0,1-3.051,3.051Zm0-4.944a1.9,1.9,0,0,0-1.893,1.893,1.9,1.9,0,0,0,1.893,1.892,1.9,1.9,0,0,0,1.893-1.892,1.9,1.9,0,0,0-1.893-1.893Z" transform="translate(252.398 352.098)" fill="#231f20"/>
      <path id="Fill-64" d="M-251.244-341.3l-7.956-3.978.541-1.12,7.995,3.978-.579,1.12" transform="translate(264.182 356.21)" fill="#231f20"/>
      <path id="Fill-65" d="M-258.659-357.34l-.541-1.081,7.956-3.978.579,1.081-7.995,3.978" transform="translate(264.182 366.031)" fill="#231f20"/>
    </g>
  </g>
</svg>
